<?xml version="1.0" encoding="UTF-8" standalone="no"?>
<!-- Created with Inkscape (http://www.inkscape.org/) -->

<svg
   xmlns:dc="http://purl.org/dc/elements/1.1/"
   xmlns:cc="http://creativecommons.org/ns#"
   xmlns:rdf="http://www.w3.org/1999/02/22-rdf-syntax-ns#"
   xmlns:svg="http://www.w3.org/2000/svg"
   xmlns="http://www.w3.org/2000/svg"
   xmlns:sodipodi="http://sodipodi.sourceforge.net/DTD/sodipodi-0.dtd"
   xmlns:inkscape="http://www.inkscape.org/namespaces/inkscape"
   version="1.1"
   id="svg2"
   width="447.20853"
   height="500.30695"
   viewBox="0 0 447.20853 500.30695"
   sodipodi:docname="Kozhikode.svg"
   inkscape:version="0.92.3 (2405546, 2018-03-11)">
  <metadata
     id="metadata8">
    <rdf:RDF>
      <cc:Work
         rdf:about="">
        <dc:format>image/svg+xml</dc:format>
        <dc:type
           rdf:resource="http://purl.org/dc/dcmitype/StillImage" />
        <dc:title></dc:title>
      </cc:Work>
    </rdf:RDF>
  </metadata>
  <defs
     id="defs6">
    <clipPath
       clipPathUnits="userSpaceOnUse"
       id="clipPath5743">
      <rect
         style="opacity:0.9;fill:#008080;fill-opacity:1;stroke:#000000;stroke-width:0;stroke-linecap:round;stroke-linejoin:round;stroke-miterlimit:4;stroke-dasharray:none;stroke-opacity:1"
         id="rect5745"
         width="760.94348"
         height="565.74646"
         x="267.21609"
         y="-34.258476" />
    </clipPath>
  </defs>
  <sodipodi:namedview
     pagecolor="#ffffff"
     bordercolor="#666666"
     borderopacity="1"
     objecttolerance="10"
     gridtolerance="10"
     guidetolerance="10"
     inkscape:pageopacity="0"
     inkscape:pageshadow="2"
     inkscape:window-width="1366"
     inkscape:window-height="680"
     id="namedview4"
     showgrid="false"
     fit-margin-top="0"
     fit-margin-left="0"
     fit-margin-right="0"
     fit-margin-bottom="0"
     inkscape:zoom="0.87569573"
     inkscape:cx="126.91281"
     inkscape:cy="220.31832"
     inkscape:window-x="0"
     inkscape:window-y="24"
     inkscape:window-maximized="1"
     inkscape:current-layer="svg2" />
  <path
     style="opacity:0.9;fill:#ffff00;fill-opacity:1;stroke:#000000;stroke-width:0;stroke-linecap:round;stroke-linejoin:round;stroke-miterlimit:4;stroke-dasharray:none;stroke-opacity:1"
     id="path829"
     d="m -451.06557,204.97922 c 0.0331,0.3308 0.14464,0.65103 0.24852,0.96567 0.0814,0.20457 0.0395,0.1064 0.12478,0.29486 0,0 -0.85335,0.48061 -0.85335,0.48061 v 0 c -0.0846,-0.19517 -0.0421,-0.0936 -0.12694,-0.30481 -0.10586,-0.32446 -0.21329,-0.65145 -0.27339,-0.98775 0,0 0.88038,-0.44858 0.88038,-0.44858 z"
     inkscape:connector-curvature="0" />
  <path
     style="opacity:0.9;fill:#ffff00;fill-opacity:1;stroke:#000000;stroke-width:0;stroke-linecap:round;stroke-linejoin:round;stroke-miterlimit:4;stroke-dasharray:none;stroke-opacity:1"
     id="path881"
     d="m -333.32499,-24.5778 c 0.005,-0.22194 0.003,-0.106757 0.005,-0.345553 0,0 0.86885,-0.442701 0.86885,-0.442701 v 0 c 0.002,0.236143 2.5e-4,0.122582 0.005,0.340689 0,0 -0.8784,0.447565 -0.8784,0.447565 z"
     inkscape:connector-curvature="0" />
  <path
     style="opacity:0.9;fill:#ffff00;fill-opacity:1;stroke:#000000;stroke-width:0;stroke-linecap:round;stroke-linejoin:round;stroke-miterlimit:4;stroke-dasharray:none;stroke-opacity:1"
     id="path895"
     d="m -404.82772,120.45855 c 0.065,-0.29974 0.075,-0.60573 0.1683,-0.89872 0.0744,-0.16887 0.13351,-0.34238 0.17995,-0.52071 0,0 0.88383,-0.42492 0.88383,-0.42492 v 0 c -0.0386,0.1829 -0.092,0.36304 -0.17684,0.5306 -0.10836,0.28359 -0.11818,0.58485 -0.16637,0.88273 0,0 -0.88887,0.43102 -0.88887,0.43102 z"
     inkscape:connector-curvature="0" />
  <path
     style="opacity:0.9;fill:#ffff00;fill-opacity:1;stroke:#000000;stroke-width:0;stroke-linecap:round;stroke-linejoin:round;stroke-miterlimit:4;stroke-dasharray:none;stroke-opacity:1"
     id="path901"
     d="m -362.55015,83.30018 c 0.3949,-0.23784 -0.23112,0.14044 -0.59386,0.33372 -0.0545,0.029 0.1022,-0.0694 0.15213,-0.10577 0.16919,-0.12315 0.33396,-0.25229 0.49576,-0.38489 0.26516,-0.26138 0.43324,-0.59623 0.54212,-0.94833 0.0429,-0.24809 -10e-4,-0.49962 -0.0297,-0.74707 -0.0221,-0.21496 -0.0285,-0.43118 -0.0313,-0.64713 -0.002,-0.22786 -0.002,-0.45573 -9.8e-4,-0.6836 0.001,-0.24201 -9e-4,-0.484 0.001,-0.72601 9.8e-4,-0.32476 0.002,-0.64953 0.002,-0.97429 5.9e-4,-0.3494 3.2e-4,-0.69879 -5e-4,-1.04819 -0.002,-0.314 -4.2e-4,-0.628 1.4e-4,-0.942 -9e-5,-0.34508 8.3e-4,-0.69015 1.7e-4,-1.03523 -0.003,-0.2755 -0.0225,-0.54821 0.0494,-0.81617 0.17938,-0.58595 0.75287,-0.79365 1.29608,-1.03933 -0.23489,0.13231 -0.46686,0.26994 -0.70467,0.39693 -0.0569,0.0304 0.10809,-0.0704 0.1613,-0.10677 0.24996,-0.17108 0.48137,-0.36445 0.7182,-0.55279 0.39425,-0.2987 0.79153,-0.59133 1.16908,-0.91132 0.23441,-0.1952 0.41257,-0.43356 0.5605,-0.69733 0,0 0.88816,-0.39867 0.88816,-0.39867 v 0 c -0.14249,0.27631 -0.31662,0.52713 -0.55324,0.73334 -0.37523,0.32261 -0.76738,0.62114 -1.1658,0.91421 -0.58971,0.4583 -1.13818,0.93104 -1.84072,1.23455 -0.27333,0.1416 -0.79655,0.41586 0.61343,-0.37832 0.03,-0.0169 -0.0536,0.0439 -0.076,0.0701 -0.0782,0.0918 -0.1321,0.20676 -0.17923,0.31622 -0.0905,0.25714 -0.0619,0.52252 -0.0661,0.79181 -6.6e-4,0.34502 2.6e-4,0.69004 1.7e-4,1.03506 5.6e-4,0.31395 0.002,0.6279 1.4e-4,0.94186 -8.1e-4,0.34956 -10e-4,0.69913 -4.9e-4,1.04869 -1.6e-4,0.32401 0.001,0.64802 0.002,0.97204 0.002,0.24167 -6e-5,0.48333 6.6e-4,0.72502 2.3e-4,0.22723 -5.4e-4,0.45447 0.002,0.6817 0.003,0.21326 0.006,0.4268 0.0269,0.63924 0.0255,0.26064 0.0724,0.52238 0.0405,0.78458 -0.10253,0.36778 -0.27135,0.71463 -0.5249,1.00324 -0.52598,0.45205 -1.10353,0.82794 -1.72731,1.13882 0,0 0.77251,-0.61793 0.77251,-0.61793 z"
     inkscape:connector-curvature="0" />
  <path
     style="opacity:0.9;fill:#ffff00;fill-opacity:1;stroke:#000000;stroke-width:0;stroke-linecap:round;stroke-linejoin:round;stroke-miterlimit:4;stroke-dasharray:none;stroke-opacity:1"
     id="path909"
     d="m -341.72417,240.51141 c 0.12132,-0.28544 0.20845,-0.58144 0.33123,-0.86707 0.2521,-0.58461 0.77164,-0.89488 1.39795,-1.08771 0.21664,-0.0604 0.37248,0.008 0.50911,0.17213 0.0898,0.16212 0.1514,0.32676 0.26656,0.47396 0.0215,0.0182 0.0429,0.0364 0.0643,0.0546 0,0 -0.83905,0.51998 -0.83905,0.51998 v 0 c -0.0244,-0.0233 -0.0489,-0.0466 -0.0733,-0.0699 -0.11174,-0.14719 -0.1815,-0.30521 -0.2654,-0.46768 -0.12412,-0.13508 -0.264,-0.14111 -0.43726,-0.0779 -0.34582,0.14552 -0.30594,0.13483 0.61351,-0.38796 0.0348,-0.0198 -0.0648,0.0474 -0.093,0.0758 -0.10889,0.10988 -0.19077,0.24784 -0.2556,0.38674 -0.12266,0.28467 -0.22582,0.57128 -0.31779,0.86713 0,0 -0.9013,0.40778 -0.9013,0.40778 z"
     inkscape:connector-curvature="0" />
  <path
     style="opacity:0.9;fill:#ffff00;fill-opacity:1;stroke:#000000;stroke-width:0;stroke-linecap:round;stroke-linejoin:round;stroke-miterlimit:4;stroke-dasharray:none;stroke-opacity:1"
     id="path911"
     d="m -340.70094,240.05663 c 0.1465,0.25207 0.24314,0.52751 0.37395,0.78732 0.082,0.1383 0.036,0.0747 0.13683,0.19175 0,0 -0.843,0.50636 -0.843,0.50636 v 0 c -0.10908,-0.13383 -0.0597,-0.063 -0.14792,-0.21251 -0.12594,-0.26171 -0.21935,-0.53941 -0.37953,-0.78344 0,0 0.85967,-0.48948 0.85967,-0.48948 z"
     inkscape:connector-curvature="0" />
  <path
     style="opacity:0.9;fill:#ffff00;fill-opacity:1;stroke:#000000;stroke-width:0;stroke-linecap:round;stroke-linejoin:round;stroke-miterlimit:4;stroke-dasharray:none;stroke-opacity:1"
     id="path913"
     d="m -337.25402,239.51445 c 0.0495,8.6e-4 0.099,0.002 0.14848,0.003 0,0 -0.79234,0.57567 -0.79234,0.57567 v 0 c -0.0518,8.5e-4 -0.10367,0.002 -0.15551,0.003 0,0 0.79937,-0.58078 0.79937,-0.58078 z"
     inkscape:connector-curvature="0" />
  <path
     style="opacity:0.9;fill:#ffff00;fill-opacity:1;stroke:#000000;stroke-width:0;stroke-linecap:round;stroke-linejoin:round;stroke-miterlimit:4;stroke-dasharray:none;stroke-opacity:1"
     id="path915"
     d="m -339.10969,239.51445 c 0.33001,0.006 0.66009,0.003 0.99013,0.003 0.26551,0.009 0.5338,-0.0245 0.79632,0.0211 0.20894,0.031 0.26167,0.21289 0.3411,0.3794 0.0578,0.16303 0.1553,0.30955 0.27334,0.43503 0.1144,0.13588 0.20897,0.28662 0.2992,0.43942 0.0886,0.18463 0.096,0.39323 0.1058,0.59429 0.006,0.21315 -0.0119,0.42234 0.0534,0.62741 0.11895,0.22756 0.23772,0.44648 0.30583,0.6959 0.0559,0.20902 0.0664,0.42571 0.0742,0.64079 0.005,0.0267 0.009,0.0535 0.0137,0.0802 0,0 -0.8707,0.4659 -0.8707,0.4659 v 0 c -0.007,-0.0319 -0.0147,-0.0637 -0.0221,-0.0956 -0.002,-0.20875 -0.01,-0.41884 -0.0581,-0.6229 -0.0643,-0.24901 -0.18659,-0.4629 -0.30345,-0.68963 -0.0767,-0.21373 -0.0717,-0.42567 -0.069,-0.65074 -0.007,-0.18539 -0.008,-0.37886 -0.0857,-0.55093 -0.0844,-0.14774 -0.17711,-0.29199 -0.28663,-0.42222 -0.12101,-0.13542 -0.22942,-0.28696 -0.28999,-0.45954 -0.0685,-0.14604 -0.1,-0.28214 -0.28335,-0.29996 -0.26068,-0.0245 -0.52346,-0.006 -0.78501,-0.013 -0.33274,-4.6e-4 -0.66551,-0.003 -0.99821,0.003 0,0 0.79936,-0.58078 0.79936,-0.58078 z"
     inkscape:connector-curvature="0" />
  <path
     style="opacity:0.9;fill:#ffff00;fill-opacity:1;stroke:#000000;stroke-width:0;stroke-linecap:round;stroke-linejoin:round;stroke-miterlimit:4;stroke-dasharray:none;stroke-opacity:1"
     id="path921"
     d="m -339.50527,239.89982 c -0.10884,-0.0732 -0.19822,-0.16952 -0.29627,-0.25594 0,0 0.83353,-0.51806 0.83353,-0.51806 v 0 c 0.0924,0.0814 0.17896,0.17249 0.28915,0.23026 0,0 -0.82641,0.54374 -0.82641,0.54374 z"
     inkscape:connector-curvature="0" />
  <path
     style="opacity:0.9;fill:#000000;fill-opacity:1;stroke:#000000;stroke-width:0;stroke-linecap:round;stroke-linejoin:round;stroke-miterlimit:4;stroke-dasharray:none;stroke-opacity:1"
     id="path3670"
     d="m 260.38343,-146.57833 c 0.13865,0.0579 0.28508,0.0868 0.43354,0.10421 0.15847,0.0396 0.31379,0.0934 0.46625,0.15236 0.14257,0.0485 0.29171,0.0646 0.44114,0.0723 0.1365,0.004 0.27059,0.0181 0.39995,-0.0312 0,0 -0.38802,0.30043 -0.38802,0.30043 v 0 c -0.13464,0.0343 -0.27185,0.022 -0.40964,0.0162 -0.15313,-0.0101 -0.30498,-0.032 -0.45,-0.0848 -0.14914,-0.0584 -0.30241,-0.11087 -0.45944,-0.14262 -0.1531,-0.0215 -0.3035,-0.056 -0.44698,-0.11501 0,0 0.4132,-0.27187 0.4132,-0.27187 z"
     inkscape:connector-curvature="0" />
  <g
     id="g3954"
     transform="translate(-497.37312,-11.146769)"
     style="fill:#999999">
    <path
       style="opacity:0.9;fill:#999999;fill-opacity:1;stroke:#000000;stroke-width:0;stroke-linecap:round;stroke-linejoin:round;stroke-miterlimit:4;stroke-dasharray:none;stroke-opacity:1"
       d="m 710.99432,507.00509 c -3.16123,-8.28846 -5.26263,-12.16146 -6.89716,-12.7119 -2.09582,-0.70578 -5.24862,-4.09951 -5.24862,-5.64972 0,-0.66535 -0.51672,-2.20895 -1.14826,-3.43022 -0.63155,-1.22127 -1.93934,-4.66915 -2.90621,-7.66194 -0.96688,-2.9928 -3.00904,-8.01215 -4.53814,-11.15411 -1.5291,-3.14197 -3.28766,-7.57926 -3.9079,-9.86065 -1.68527,-6.1988 -2.50031,-8.58378 -4.45293,-13.03026 -0.97514,-2.22057 -2.41227,-5.49087 -3.19362,-7.26732 -0.78135,-1.77646 -2.07097,-5.41012 -2.86583,-8.0748 -0.79486,-2.66469 -1.89009,-6.11666 -2.43385,-7.67106 -0.54375,-1.5544 -1.24489,-4.64301 -1.55808,-6.86358 -0.8101,-5.74373 -4.25462,-17.37439 -5.59701,-18.89868 -1.25192,-1.42156 -3.5526,-6.97254 -5.72136,-13.80426 -0.77542,-2.44263 -2.19313,-6.07629 -3.15045,-8.0748 -1.55465,-3.24549 -2.08489,-3.67679 -4.96349,-4.0374 -3.08605,-0.3866 -3.24194,-0.54648 -3.67163,-3.76565 -0.24681,-1.84905 -0.92362,-3.9341 -1.50403,-4.63345 -0.8819,-1.06263 -0.84134,-1.35365 0.24687,-1.77124 1.88137,-0.72194 1.69433,-6.88984 -0.32921,-10.85631 l -1.63137,-3.19775 h 3.18029 c 4.10654,0 5.73481,-0.65718 5.73481,-2.31459 0,-0.73389 0.72673,-1.78819 1.61496,-2.3429 0.91298,-0.57016 1.61496,-1.88306 1.61496,-3.02041 0,-2.06121 2.05376,-2.79315 3.67404,-1.30939 0.44068,0.40356 1.88381,0.23077 3.39141,-0.40605 2.40004,-1.0138 2.62431,-1.41479 2.62431,-4.69222 0,-3.50119 0.99702,-5.33211 2.01056,-3.69217 0.27896,0.45136 1.94563,0.82065 3.70372,0.82065 2.61905,0 3.71535,-0.53424 6.06836,-2.9572 2.16966,-2.23415 2.73605,-3.36939 2.31651,-4.64301 -1.33784,-4.06134 -1.32913,-7.79697 0.023,-9.86057 0.80634,-1.23063 1.20824,-2.96504 0.97263,-4.19751 -0.25475,-1.33264 0.0496,-2.43017 0.83264,-3.00275 0.98602,-0.721 1.04871,-1.24892 0.3118,-2.62585 -0.87214,-1.6296 -0.70089,-1.75279 3.14581,-2.26308 2.23748,-0.29681 4.26678,-0.86105 4.50956,-1.25387 0.73873,-1.1953 1.94478,0.099 1.94478,2.08708 0,2.0156 2.08598,4.29227 3.04756,3.32616 0.32236,-0.32386 0.5861,-1.73827 0.5861,-3.14311 0,-2.18623 0.29087,-2.55427 2.0187,-2.55427 2.63931,0 4.25655,-1.09039 3.71405,-2.50412 -0.54867,-1.42981 2.03103,-1.52006 3.43537,-0.12019 1.38032,1.37593 3.82986,-1.87992 4.48183,-5.95709 0.5745,-3.59271 2.31486,-5.5495 4.93571,-5.5495 1.2949,0 2.26233,-0.72058 2.98125,-2.22057 0.63269,-1.32006 1.7148,-2.22057 2.66837,-2.22057 2.65323,0 2.05426,5.39906 -0.87887,7.92203 -1.99084,1.71244 -2.16018,2.16635 -1.22747,3.2902 0.59509,0.71704 1.54225,1.30371 2.10479,1.30371 0.56254,0 3.39384,1.38555 6.29178,3.07901 l 5.26896,3.07901 -2.41153,0.91025 c -2.00306,0.75607 -2.36745,1.29452 -2.15137,3.17896 0.19799,1.72662 1.03192,2.6489 3.49007,3.85985 2.44267,1.20333 2.8628,1.66496 1.7237,1.89398 -1.22738,0.24676 -1.42391,0.81006 -1.06161,3.04268 0.35409,2.182 0.0966,2.98357 -1.26439,3.93688 -1.69365,1.18628 -1.69499,1.21357 -0.14961,3.03724 0.85767,1.01211 1.85051,2.05482 2.20632,2.31713 0.35581,0.26231 0.20664,1.44325 -0.33149,2.62431 -0.75162,1.64964 -0.75977,2.62724 -0.0351,4.2176 0.76469,1.67829 0.71279,2.30068 -0.27413,3.28759 -0.66959,0.66956 -1.21741,1.57235 -1.21741,2.00619 0,0.43385 -0.74489,2.31557 -1.65531,4.1816 -0.91042,1.86603 -1.6794,4.71297 -1.70884,6.32654 -0.0722,3.95799 2.88491,7.96722 5.87649,7.96722 2.95227,0 7.17742,-3.62224 7.17742,-6.15322 0,-1.08475 0.54505,-2.14254 1.21122,-2.35066 0.66617,-0.20812 1.84711,-0.62334 2.62431,-0.92271 0.7772,-0.29936 2.32151,-0.57189 3.43179,-0.60561 1.11029,-0.0337 2.13544,-0.42467 2.27811,-0.86878 0.61416,-1.91173 2.86812,-3.6553 3.67816,-2.84526 0.45461,0.45461 1.45479,0.82656 2.22262,0.82656 1.07465,0 1.39639,0.69713 1.39749,3.02805 0.002,5.54376 0.11726,5.85423 2.16153,5.85423 1.33589,0 2.33102,0.74112 3.16774,2.35915 0.78021,1.50875 0.91506,2.46078 0.3741,2.6411 -0.97174,0.32392 0.0774,3.3564 1.99944,5.77931 1.02421,1.2911 1.55849,1.37021 3.94176,0.58366 2.9127,-0.96127 4.94057,-0.57563 7.21019,1.37116 0.89439,0.76718 2.13312,0.99531 3.51763,0.64782 1.50014,-0.37652 2.41948,-0.15017 3.08459,0.75941 0.75788,1.03647 1.38709,1.12866 3.14407,0.46066 1.20812,-0.45933 2.22437,-1.48003 2.25835,-2.26822 0.13259,-3.07547 0.71204,-4.66004 2.06619,-5.65022 1.94613,-1.42305 2.79965,-1.29322 3.26782,0.49705 0.33649,1.28673 0.92679,1.45783 3.73154,1.08163 3.48615,-0.46759 8.63723,-3.04411 8.63723,-4.32025 0,-0.40871 0.87457,-0.52361 1.94349,-0.25532 1.93274,0.48508 4.76087,-0.58618 6.72025,-2.54557 1.52774,-1.52774 1.2448,-2.12712 -0.71109,-1.50634 -1.46384,0.4646 -1.63997,0.31438 -1.11961,-0.95494 0.33963,-0.82845 0.80034,-2.14216 1.0238,-2.91936 0.28133,-0.97842 1.22637,-1.41309 3.07227,-1.41309 1.46628,0 3.24073,-0.22056 3.94323,-0.49013 1.37489,-0.5276 1.76239,-3.23883 0.52621,-3.68185 -0.41309,-0.14804 -0.86729,-1.35926 -1.00935,-2.6916 -0.19514,-1.83005 0.0379,-2.34608 0.95292,-2.1102 4.44939,1.14702 4.76741,1.08504 5.29893,-1.0327 0.41396,-1.64932 1.02424,-2.10572 2.81575,-2.10572 1.25799,0 2.51264,-0.3647 2.78813,-0.81044 0.27548,-0.44575 1.38703,-0.62743 2.4701,-0.40374 1.08306,0.22368 2.82662,0.58251 3.87457,0.79738 1.69163,0.34685 1.95816,0.95828 2.37603,5.45049 0.43798,4.70862 0.30917,5.26242 -1.85585,7.97889 -2.09957,2.63434 -2.21447,3.07902 -1.17801,4.55879 1.05257,1.50274 0.97894,1.68226 -0.88149,2.1492 -1.41387,0.35486 -2.17259,1.22252 -2.49985,2.85878 -0.25841,1.29211 -0.97412,2.5428 -1.59046,2.77931 -0.61634,0.23651 -1.12285,0.89563 -1.12558,1.46471 -0.002,0.56908 -0.51949,2.02093 -1.14833,3.22633 -1.03105,1.97639 -0.98517,2.39272 0.46732,4.23927 2.34868,2.98585 5.08216,2.64642 8.65779,-1.0751 3.55556,-3.70063 6.14239,-4.78997 6.87028,-2.89313 0.37487,0.9769 1.10036,1.16744 2.9218,0.76739 1.86339,-0.40927 2.42311,-0.24861 2.42311,0.69552 0,1.79608 1.4986,2.42482 2.93608,1.23182 1.57671,-1.30855 12.85225,-1.95588 15.13674,-0.869 0.94074,0.44757 2.35525,1.02042 3.14336,1.273 1.07681,0.3451 1.30525,0.96795 0.91919,2.50615 -0.30314,1.20776 -0.0879,2.55998 0.52491,3.29842 0.90957,1.09596 0.75506,1.18033 -1.24315,0.67881 l -2.28181,-0.5727 0.55446,3.46743 c 0.30496,1.90708 1.45,4.5317 2.54454,5.8325 2.20235,2.61734 2.35566,3.16755 1.20362,4.31959 -0.45811,0.45811 -0.51967,1.78975 -0.14745,3.18954 0.59244,2.22794 0.94403,2.42088 4.82386,2.64716 2.30167,0.13423 4.18485,0.58844 4.18485,1.00935 0,0.42091 0.8787,0.76528 1.95266,0.76528 3.04865,0 4.56591,0.85684 5.39947,3.04924 0.99999,2.63019 -1.03399,5.02556 -4.26735,5.02556 -1.76731,0 -2.5349,0.52701 -3.23426,2.22057 -0.50435,1.22131 -0.84279,2.67478 -0.7521,3.22992 0.0907,0.55514 -0.57817,1.00935 -1.48636,1.00935 -0.90819,0 -3.0845,1.47686 -4.83623,3.2819 -2.81347,2.89908 -3.38867,3.17289 -4.93121,2.34735 -1.14315,-0.6118 -5.05032,-0.82934 -11.3132,-0.6299 -8.75543,0.27881 -9.74121,0.46836 -11.62123,2.23455 -1.12985,1.06144 -2.05427,2.59328 -2.05427,3.40409 0,1.09051 -0.61331,1.47421 -2.3564,1.47421 -3.17115,0 -4.91092,0.74576 -4.91092,2.10509 0,1.80655 -1.15209,1.33213 -5.00862,-2.06253 -2.35937,-2.0768 -4.15739,-3.05426 -5.16044,-2.80536 -1.10163,0.27336 -2.05818,-0.42764 -3.36365,-2.465 -1.00334,-1.56585 -2.20233,-2.847 -2.66441,-2.847 -3.14367,0 -10.66757,6.48775 -13.34429,11.50659 -0.97035,1.81941 -1.7334,2.22057 -4.22383,2.22057 -1.67175,0 -5.13212,0.54505 -7.68973,1.21122 -2.5576,0.66617 -5.6989,1.21122 -6.98066,1.21122 -3.77583,0 -6.30395,1.3681 -7.76965,4.20458 -2.68573,5.19756 -5.7404,5.57827 -10.64179,1.32631 -4.36173,-3.78381 -6.09338,-2.87767 -7.2082,3.77197 l -0.67155,4.0056 -3.83309,0.5483 c -4.48153,0.64105 -11.60768,5.3269 -11.24259,7.39264 0.2279,1.28948 -6.74041,8.75605 -9.60004,10.28647 -1.1403,0.61027 -1.66309,0.41308 -2.36071,-0.89043 -1.2189,-2.27755 -2.6524,-1.59683 -3.29943,1.56678 -0.45599,2.22955 -0.26555,2.72111 1.28221,3.30957 2.12974,0.80972 3.37196,3.23725 1.65656,3.23725 -2.12474,0 -2.19514,1.69066 -0.14934,3.58665 1.12098,1.03889 3.92107,2.37148 6.22241,2.96129 2.30135,0.58982 4.36682,1.54811 4.58994,2.12954 0.8323,2.16894 3.42928,2.82366 5.58849,1.40889 2.34581,-1.53703 2.18148,-1.63131 3.38957,1.94445 1.31054,3.87894 1.16183,4.92626 -0.69947,4.92626 -0.93626,0 -2.24257,1.01251 -3.0774,2.38527 l -1.45057,2.38528 -2.57496,-1.56593 c -1.41623,-0.86126 -2.57496,-1.93463 -2.57496,-2.38527 0,-1.40167 -2.9883,-0.90205 -5.96599,0.99748 -2.79316,1.78182 -3.69896,3.80885 -4.00885,8.97121 -0.0652,1.08716 -0.36069,1.82725 -0.65651,1.64464 -0.29582,-0.18262 -1.45443,0.0165 -2.57469,0.44237 l -2.03685,0.77441 1.96571,3.87438 c 2.37196,4.67511 2.53989,6.31209 0.55937,5.45269 -5.08882,-2.20818 -10.69911,-0.52895 -10.69911,3.20237 0,1.6483 -0.36729,1.90058 -2.618,1.79822 -2.00378,-0.0911 -2.80649,0.30719 -3.4214,1.69777 -0.44186,0.99925 -1.10204,1.81683 -1.46705,1.81683 -0.36501,0 -0.4954,0.27252 -0.28975,0.60561 0.20565,0.33308 -0.46475,0.65584 -1.48978,0.71723 -1.55534,0.0931 -2.15097,-0.64161 -3.60012,-4.44114 z"
       id="path3946"
       inkscape:connector-curvature="0" />
    <path
       style="opacity:0.9;fill:#999999;fill-opacity:1;stroke:#000000;stroke-width:0;stroke-linecap:round;stroke-linejoin:round;stroke-miterlimit:4;stroke-dasharray:none;stroke-opacity:1"
       d="m 889.81756,387.53734 c -1.33234,-0.15731 -3.05018,-0.84961 -3.81741,-1.53844 -0.98912,-0.88804 -2.35357,-1.12384 -4.68982,-0.81048 -2.98354,0.40018 -3.36956,0.24544 -4.08553,-1.6377 -0.52942,-1.39249 -0.51396,-2.35635 0.0468,-2.91712 1.28838,-1.28838 1.01183,-2.60447 -1.07073,-5.09554 -1.04951,-1.25539 -2.16409,-3.1001 -2.47686,-4.09936 -0.45579,-1.45628 -0.25697,-1.81683 1.00187,-1.81683 0.86378,0 2.05203,-0.58022 2.64058,-1.28937 0.904,-1.08925 0.84902,-1.41306 -0.35416,-2.08641 -1.04651,-0.58565 -1.29456,-1.38741 -0.9353,-3.0231 0.87938,-4.00384 -1.32923,-4.69724 -16.84408,-5.28825 -8.67132,-0.33031 -10.56901,-0.63048 -11.42996,-1.80789 -0.96922,-1.32548 -1.2037,-1.3301 -3.83465,-0.0755 -1.93544,0.92295 -3.0614,1.07722 -3.63992,0.4987 -1.21517,-1.21517 -2.74053,0.0312 -2.18403,1.78454 0.26124,0.82307 0.0296,2.2097 -0.51481,3.08139 -1.0412,1.66723 -2.55424,1.52693 -4.86445,-0.45107 -1.17744,-1.00813 -1.20204,-1.40154 -0.20684,-3.30905 0.62121,-1.1907 1.13171,-2.58023 1.13445,-3.08786 0.002,-0.50763 0.55002,-1.13211 1.21619,-1.38775 0.66617,-0.25563 1.21122,-1.21191 1.21122,-2.12507 0,-1.01009 0.75985,-1.94918 1.94027,-2.39798 2.59839,-0.9879 3.15299,-2.07646 1.99919,-3.92398 -0.80282,-1.28554 -0.6116,-1.99435 1.16726,-4.32655 1.95831,-2.56748 2.08791,-3.21179 1.63075,-8.10735 -0.62987,-6.74519 -1.81214,-7.56831 -9.7085,-6.7593 -5.35488,0.54862 -8.81423,2.27704 -7.80988,3.90211 0.30201,0.48867 -0.48118,0.57354 -2.07082,0.22439 -3.50989,-0.7709 -5.1491,0.68331 -4.45175,3.94928 0.29309,1.3726 0.89878,2.94985 1.346,3.50499 0.62706,0.77841 -0.0182,1.00935 -2.82055,1.00935 -3.38325,0 -6.1164,1.48325 -4.92624,2.67341 0.27836,0.27836 -0.0856,1.40923 -0.80887,2.51303 -1.18471,1.80811 -1.19049,2.07659 -0.0584,2.71017 1.10354,0.61757 1.11161,0.82359 0.0663,1.69114 -0.80766,0.6703 -1.35859,0.7157 -1.71364,0.14122 -0.81121,-1.31256 -2.69321,-1.0039 -4.42243,0.72533 -2.015,2.01499 -6.00534,4.08034 -7.88341,4.08034 -0.80345,0 -1.89597,-0.6968 -2.42784,-1.54844 -0.67223,-1.07642 -1.53142,-1.41092 -2.81855,-1.09734 -2.94933,0.71856 -4.52001,2.55259 -5.0936,5.94762 -0.51196,3.03029 -2.29406,4.31414 -3.00944,2.16801 -0.1885,-0.5655 -1.43254,-0.90596 -2.90138,-0.79405 -1.41426,0.10777 -3.48262,-0.40112 -4.59634,-1.13086 -1.50905,-0.98876 -3.00018,-1.19742 -5.85277,-0.81902 -3.28146,0.4353 -3.97281,0.27561 -4.84365,-1.11882 -0.55871,-0.89464 -0.79276,-2.51542 -0.52011,-3.60175 0.60046,-2.39248 -2.28921,-6.88762 -4.42767,-6.88762 -1.51296,0 -1.79628,-0.97898 -1.70596,-5.89479 0.0383,-2.0837 -0.2748,-3.00122 -0.97546,-2.85864 -0.56751,0.11549 -1.86314,-0.24975 -2.87917,-0.81165 -2.38268,-1.31769 -4.91671,-0.49162 -5.82566,1.89911 -0.50945,1.33993 -1.17071,1.76692 -2.28506,1.47552 -0.86248,-0.22554 -1.81228,-0.0151 -2.11067,0.46774 -0.29839,0.48281 -1.22186,0.87783 -2.05216,0.87783 -2.07027,0 -4.04742,2.15229 -4.04742,4.40595 0,2.01769 -3.01576,4.49331 -5.42208,4.45096 -2.04892,-0.0361 -4.59383,-3.88122 -4.49571,-6.79265 0.0948,-2.81264 3.63023,-10.86239 5.19566,-11.82988 0.84108,-0.51982 0.8476,-1.17841 0.0339,-3.42855 -0.78544,-2.17209 -0.79533,-3.25001 -0.0449,-4.89698 0.84102,-1.84584 0.7253,-2.36401 -0.9188,-4.11407 -1.78536,-1.90043 -1.81068,-2.07999 -0.49778,-3.53073 0.91639,-1.0126 1.21347,-2.20489 0.88022,-3.53267 -0.35464,-1.41301 -0.12802,-2.14812 0.76826,-2.49206 2.09361,-0.80339 1.45864,-2.02508 -1.95863,-3.76844 -3.98525,-2.03312 -4.36064,-4.41687 -0.80748,-5.1275 2.86488,-0.57298 3.15757,-2.31625 0.60561,-3.60703 -0.99926,-0.50544 -3.27029,-1.83307 -5.04675,-2.95032 -3.1782,-1.99881 -4.47027,-2.63579 -6.85831,-3.3811 -0.96055,-0.29978 -0.84575,-0.65373 0.56414,-1.73936 3.72243,-2.8663 4.51627,-8.59104 1.3889,-10.01597 -1.80911,-0.82429 -2.01381,-1.29525 -1.57639,-3.62689 0.55596,-2.9635 -0.15854,-3.56251 -4.51037,-3.78138 -1.3557,-0.0682 -2.78705,-0.69958 -3.18076,-1.40311 -0.55285,-0.98788 -1.62276,-1.19199 -4.6988,-0.89642 -3.32253,0.31925 -4.11904,0.12845 -4.80362,-1.1507 -0.45136,-0.84338 -2.1222,-2.0441 -3.71297,-2.66827 -1.59078,-0.62417 -2.89232,-1.42584 -2.89232,-1.78149 0,-0.35565 1.36398,-1.50768 3.03106,-2.56007 2.52143,-1.5917 3.84516,-1.86259 7.87293,-1.61109 3.05157,0.19054 7.23042,-0.28444 11.30171,-1.2846 5.60114,-1.37598 6.57901,-1.43151 7.35634,-0.41773 1.1725,1.52915 1.90674,1.47496 3.30448,-0.2439 0.83617,-1.02827 1.26355,-1.13822 1.5694,-0.40374 0.53986,1.29648 2.90172,1.30028 4.19525,0.007 0.79848,-0.79848 1.14177,-0.77741 1.68618,0.10345 0.8034,1.29991 2.47909,0.51097 2.47909,-1.16723 0,-1.6314 0.48894,-1.49297 4.65321,1.31747 l 3.6762,2.48103 2.75438,-1.47168 c 2.29132,-1.22427 2.68538,-1.82096 2.34392,-3.54926 -0.34284,-1.73531 -0.11918,-2.06788 1.35759,-2.0187 1.24147,0.0413 1.84489,-0.48223 2.02607,-1.75796 0.29971,-2.1103 1.15133,-2.31278 2.5647,-0.60977 0.76895,0.92653 2.00871,1.08871 5.3345,0.69783 2.66715,-0.31347 4.73616,-0.17442 5.38216,0.36171 1.40593,1.16682 2.64695,0.23557 3.3132,-2.4862 0.38702,-1.58107 0.20979,-2.36805 -0.60358,-2.68017 -0.63332,-0.24302 -1.33496,-1.14346 -1.5592,-2.00097 -0.23054,-0.88159 -1.106,-1.5591 -2.01462,-1.5591 -0.8838,0 -2.80278,-1.36202 -4.2644,-3.02671 -2.39509,-2.72785 -2.50301,-3.05452 -1.093,-3.3083 2.54451,-0.45797 2.91673,-1.36187 1.20044,-2.91509 -1.37122,-1.24093 -1.96148,-1.31597 -3.93181,-0.49983 -1.98989,0.82423 -2.73272,0.71583 -5.24265,-0.76506 -1.60836,-0.94895 -3.31552,-1.48357 -3.79371,-1.18803 -0.47818,0.29553 -1.44593,0.0519 -2.15054,-0.54153 -0.70462,-0.59338 -3.28154,-2.16897 -5.7265,-3.50131 -3.35531,-1.82842 -5.32725,-3.70947 -8.0417,-7.67106 -3.74802,-5.47002 -5.78295,-6.86054 -8.89639,-6.07911 -1.45268,0.3646 -2.01465,0.0276 -2.62331,-1.57333 -0.68715,-1.80735 -1.23544,-2.03732 -4.85732,-2.03732 -4.28809,0 -4.36257,-0.0671 -5.1532,-4.64301 -0.44238,-2.56038 -0.38233,-2.62431 2.46542,-2.62431 1.78249,0 3.29877,0.51958 3.89471,1.33458 0.98885,1.35233 3.25338,0.80178 2.39761,-0.58289 -0.25551,-0.41343 0.24473,-0.75169 1.11165,-0.75169 0.86693,0 1.82274,-0.63589 2.12403,-1.41309 0.51435,-1.32679 0.61573,-1.32082 1.66008,0.0979 0.80658,1.09569 1.67846,1.36888 3.17225,0.99396 1.8323,-0.45987 2.0636,-0.2699 2.09279,1.71894 0.0376,2.56503 4.2276,7.9411 5.55141,7.12294 1.09995,-0.67981 1.14929,-4.21879 0.0681,-4.88699 -1.51338,-0.93532 -0.81255,-2.0187 1.30587,-2.0187 1.4537,0 3.38688,1.26022 6.19338,4.0374 2.24401,2.22057 4.5633,4.0374 5.15397,4.0374 1.65091,0 1.2741,-3.56515 -0.63308,-5.98973 -2.11313,-2.68642 -1.33599,-3.68196 1.57159,-2.01324 1.25996,0.72312 3.68455,1.17605 5.73507,1.07136 2.18753,-0.11169 3.98742,0.25371 4.68478,0.95108 1.48245,1.48244 4.25022,0.10014 4.25022,-2.12268 0,-1.16202 0.5506,-1.58655 2.05771,-1.58655 1.13174,0 3.56275,-0.72716 5.40225,-1.61591 3.36409,-1.62535 4.60592,-1.26161 4.63988,1.35906 0.007,0.5249 1.10246,1.73058 2.4348,2.67929 2.88553,2.05468 3.24602,5.39576 0.80748,7.4837 -1.59619,1.36671 -2.21904,3.82102 -0.96969,3.82102 0.84689,0 2.58465,4.85297 2.58465,7.21805 0,1.02013 1.04674,3.04694 2.32608,4.50403 1.67602,1.90888 2.21604,3.22486 1.93234,4.70895 -0.31999,1.67389 0.114,2.36926 2.31693,3.7123 1.49087,0.90893 2.89235,1.65042 3.11441,1.64777 0.22206,-0.003 2.7954,-2.27233 5.71853,-5.04373 2.92313,-2.7714 7.61452,-7.03742 10.42529,-9.48005 2.81078,-2.44263 7.24032,-6.50281 9.84344,-9.02263 5.32126,-5.15098 5.49595,-5.16699 13.28845,-1.21824 2.89696,1.46801 4.29198,2.71926 4.65812,4.17809 0.30158,1.20159 1.39278,2.41332 2.57963,2.86456 1.13133,0.43013 2.61844,1.34353 3.3047,2.02979 0.68626,0.68626 2.34673,1.46753 3.68993,1.73618 1.71164,0.34232 2.70167,1.17587 3.30962,2.78652 0.76217,2.01923 1.27562,2.29809 4.23135,2.29809 4.96408,0 8.41378,1.76923 10.44368,5.3562 1.88272,3.32688 3.8737,3.75502 5.72837,1.23183 0.91406,-1.24353 1.15976,-1.23645 3.43241,0.0989 2.22477,1.30725 2.70861,1.32941 5.30858,0.24307 1.57338,-0.6574 2.8607,-1.72485 2.8607,-2.3721 0,-0.77688 0.54551,-1.03417 1.60515,-0.75707 1.07921,0.28222 1.79146,-0.0733 2.17377,-1.08495 0.71887,-1.90229 4.69637,-5.94584 5.84873,-5.94584 0.47827,0 0.86959,-0.5236 0.86959,-1.16356 0,-0.63996 0.35558,-1.38333 0.79018,-1.65193 1.1811,-0.72996 5.66966,2.89776 5.66966,4.5823 0,1.13381 0.63609,1.46311 2.82618,1.46311 3.1096,0 3.22502,0.22987 1.95074,3.88525 -0.70283,2.01614 -0.62322,2.87137 0.40374,4.33757 1.75101,2.49991 1.60521,5.76647 -0.33578,7.52304 -2.14791,1.94383 -2.03696,3.13826 0.52996,5.70518 1.91761,1.9176 2.60955,2.1064 6.52892,1.78137 4.16983,-0.34579 4.48705,-0.23439 6.49387,2.28068 1.7367,2.17655 2.50914,2.56438 4.36722,2.19276 1.24155,-0.2483 3.34962,9.7e-4 4.68463,0.55395 1.97811,0.81936 2.42728,1.48038 2.42728,3.57213 0,2.88941 1.22516,4.50467 3.41675,4.50467 0.81335,0 1.68797,0.54505 1.9436,1.21122 0.25564,0.66617 0.82403,1.21122 1.2631,1.21122 1.82976,0 5.17892,3.27029 6.17762,6.03213 0.93187,2.57707 0.90412,3.15101 -0.21205,4.38436 -1.83216,2.02451 -1.5914,5.07008 0.74871,9.47123 1.37895,2.59344 1.76862,4.08796 1.21122,4.64536 -0.45198,0.45198 -0.82179,1.65753 -0.82179,2.679 0,2.41193 -0.44195,2.34544 -3.75703,-0.56524 -2.87555,-2.52476 -4.31777,-3.03986 -4.31777,-1.54211 0,1.42802 -4.35179,7.15846 -5.45049,7.17723 -0.55514,0.009 -1.00935,0.88116 -1.00935,1.93707 0,2.73554 -1.85771,4.09158 -4.01997,2.93438 -0.93542,-0.50062 -3.048,-0.79836 -4.69463,-0.66164 -2.88327,0.23939 -3.00285,0.37158 -3.23719,3.57855 -0.16618,2.27441 -0.87008,3.91879 -2.22057,5.18751 -1.45839,1.37008 -1.97724,2.70445 -1.97724,5.08497 0,1.87263 -0.56211,3.84858 -1.33905,4.70709 -1.18639,1.31095 -1.22167,2.00864 -0.30946,6.11968 0.56628,2.55203 1.56223,5.6793 2.21323,6.94949 0.68098,1.32871 0.79732,2.07069 0.27394,1.74723 -3.04217,-1.88016 -7.80128,6.99449 -6.41707,11.96639 1.11101,3.99063 8.09683,8.7881 13.46889,9.24969 l 4.25684,0.36577 -0.47806,2.54822 c -0.36603,1.95109 -0.0863,2.90273 1.19367,4.0611 2.34752,2.12448 2.08093,4.60577 -0.7904,7.35669 -1.80567,1.72993 -3.09792,2.29216 -4.8468,2.10872 -1.50827,-0.15821 -2.54776,0.17484 -2.82842,0.90623 -0.31321,0.81623 -2.4788,1.3128 -7.36217,1.68817 -3.80513,0.29248 -7.23826,0.72945 -7.62915,0.97103 -0.39089,0.24159 -0.71071,1.49512 -0.71071,2.78562 0,1.61267 -0.56812,2.6443 -1.81683,3.29911 -0.99926,0.52399 -3.08861,1.90688 -4.64301,3.07306 -1.95556,1.46715 -3.57242,2.03222 -5.24862,1.8343 z"
       id="path3948"
       inkscape:connector-curvature="0" />
    <path
       style="opacity:0.9;fill:#999999;fill-opacity:1;stroke:#000000;stroke-width:0;stroke-linecap:round;stroke-linejoin:round;stroke-miterlimit:4;stroke-dasharray:none;stroke-opacity:1"
       d="m 644.63809,340.75446 c -1.43782,-3.61935 -2.25415,-5.37807 -3.09209,-6.66171 -0.43486,-0.66617 -2.63785,-5.1174 -4.89553,-9.89163 -2.25768,-4.77423 -4.39845,-8.68041 -4.75729,-8.68041 -0.35883,0 -1.6443,-2.27104 -2.8566,-5.04675 -4.35944,-9.98149 -7.11677,-15.5857 -8.83964,-17.96643 -0.96418,-1.33234 -2.64788,-4.23927 -3.74156,-6.45984 -1.09367,-2.22057 -3.29945,-5.51753 -4.90172,-7.32657 -1.60227,-1.80905 -3.08388,-3.80117 -3.29247,-4.42692 -0.22186,-0.66558 -1.26844,-1.06416 -2.52187,-0.96042 -1.61337,0.13353 -2.42659,-0.36862 -3.29228,-2.03292 -1.68723,-3.24376 -5.04076,-5.84137 -7.56769,-5.86187 -1.21794,-0.01 -3.12284,-0.72852 -4.23313,-1.597 -1.11028,-0.86848 -2.65952,-1.58713 -3.44274,-1.597 -0.78323,-0.01 -2.12343,-0.45473 -2.97822,-0.98856 -1.59992,-0.99916 -2.08528,-0.86906 -8.34847,2.23785 -2.00906,0.99661 -2.31773,0.96661 -2.84566,-0.27656 -1.94493,-4.57993 -4.44071,-7.45107 -6.4872,-7.46289 -3.34556,-0.0193 -4.5022,-1.06843 -3.41585,-3.0983 1.22777,-2.29411 0.5864,-4.42885 -4.75295,-15.82 -2.50965,-5.35419 -5.24158,-12.09676 -6.07095,-14.9835 -0.82937,-2.88674 -1.78367,-5.62046 -2.12067,-6.07495 -0.33699,-0.45448 -1.38108,-3.72477 -2.32019,-7.26732 -0.93912,-3.54254 -2.73292,-8.65262 -3.98623,-11.35572 -1.9754,-4.26049 -2.1157,-5.01759 -1.05398,-5.68731 0.98099,-0.61879 1.04061,-1.11667 0.29954,-2.50136 -0.50887,-0.95084 -0.92523,-2.11606 -0.92523,-2.58937 0,-1.10763 2.97168,-1.1242 3.65388,-0.0204 0.90435,1.46327 6.74636,4.81216 8.39462,4.81216 0.87084,0 1.82107,-0.38464 2.11162,-0.85476 0.6384,-1.03294 5.35941,-0.15345 6.21639,1.15808 0.9548,1.46123 0.7084,3.759 -0.53659,5.004 -1.41647,1.41647 -0.71484,4.30154 2.29523,9.43782 3.17963,5.42564 4.64686,6.43568 9.34868,6.43568 3.70261,0 4.21697,0.22586 5.30469,2.32927 0.73047,1.41258 1.85282,2.32927 2.85182,2.32927 0.90602,0 2.38038,0.39233 3.27636,0.87184 1.25919,0.6739 1.94905,0.58224 3.03855,-0.40374 0.77522,-0.70157 2.2893,-1.30112 3.36461,-1.33234 1.07532,-0.0312 2.53771,-0.30373 3.24977,-0.60561 2.33872,-0.99148 9.60633,-10.01821 9.60633,-11.93155 0,-1.01497 0.36337,-2.06998 0.80748,-2.34446 1.42195,-0.87881 0.86737,-3.7331 -1.20351,-6.1942 l -2.011,-2.38993 2.21287,-2.77337 c 1.21707,-1.52534 2.67985,-2.77336 3.25062,-2.77337 3.56068,-8e-5 8.50045,-6.35172 9.44045,-12.13867 0.35999,-2.21626 1.44564,-4.54132 2.81544,-6.02966 1.22623,-1.33234 2.71928,-3.57533 3.31787,-4.98443 0.87605,-2.06222 1.35997,-2.41663 2.48071,-1.81683 0.76579,0.40984 3.61398,0.74516 6.32931,0.74516 3.28446,0 6.05581,0.54056 8.27956,1.61496 1.83841,0.88823 3.74255,1.61496 4.2314,1.61496 0.48885,0 2.31438,0.7268 4.05674,1.6151 5.16353,2.63252 7.62538,0.72353 4.74199,-3.67708 -1.03693,-1.58255 -1.19578,-3.04867 -0.7537,-6.95615 0.39566,-3.4972 0.27686,-5.12605 -0.40458,-5.5472 -1.40421,-0.86786 -0.15877,-2.38706 3.05917,-3.7316 2.76717,-1.1562 2.80354,-1.23388 2.26364,-4.83423 -0.40023,-2.66893 -0.23273,-4.02213 0.61899,-5.0005 0.64223,-0.73775 1.78764,-3.33987 2.54533,-5.7825 0.7577,-2.44262 1.55704,-4.98619 1.77632,-5.65236 0.30219,-0.91803 0.96838,-0.57597 2.75214,1.41309 1.29439,1.44337 2.84729,2.62431 3.45089,2.62431 0.6036,0 1.75513,0.72673 2.55897,1.61496 0.80384,0.88823 2.29217,1.61496 3.30742,1.61496 2.3049,0 3.19244,1.31853 1.91978,2.852 -0.99551,1.19951 -1.02579,1.17393 2.77146,2.34206 0.62429,0.19205 1.37898,1.45966 1.67708,2.81692 0.29811,1.35726 0.94004,2.71374 1.42651,3.0144 0.48648,0.30065 4.10243,0.63032 8.03546,0.73259 7.00024,0.18201 7.17392,0.14091 8.24102,-1.95049 0.61163,-1.19871 0.90843,-3.33864 0.67621,-4.87549 -0.39891,-2.6401 -0.33456,-2.71918 1.78049,-2.18833 1.8047,0.45295 2.27405,0.24602 2.64311,-1.16528 0.38925,-1.48848 0.83539,-1.64441 3.36463,-1.17598 1.60372,0.29702 3.03699,0.87304 3.18503,1.28004 0.52304,1.438 1.86478,0.69976 5.25924,-2.89366 1.88785,-1.99851 4.02618,-3.63366 4.75185,-3.63366 0.72565,0 1.55004,-0.72673 1.83195,-1.61496 0.28192,-0.88823 0.95238,-1.61496 1.48992,-1.61496 1.45049,0 3.93698,-3.2156 3.4559,-4.46926 -0.2812,-0.73282 0.8189,-1.47897 3.37458,-2.28883 2.08549,-0.66086 7.97051,-2.70439 13.07782,-4.54116 5.10731,-1.83677 12.09124,-4.29811 15.51984,-5.46963 l 6.23381,-2.13005 1.87427,1.76078 c 3.12843,2.93901 4.11912,6.79969 2.64822,10.32003 -0.68434,1.63787 -1.24426,3.79749 -1.24426,4.79916 0,1.00167 -0.5829,2.30499 -1.29534,2.89626 -2.00001,1.65986 -2.93851,4.77662 -1.83771,6.10301 0.63837,0.76918 0.76823,2.96972 0.40555,6.87201 -0.4276,4.60086 -0.2499,6.35642 0.89512,8.84294 0.78575,1.70634 2.01392,3.11181 2.72926,3.12327 0.95339,0.0153 1.42754,1.09253 1.77604,4.03511 0.63178,5.33438 1.76842,7.29044 4.23638,7.29044 1.35785,0 2.30529,0.65335 2.92738,2.0187 0.65852,1.44527 1.55443,2.0187 3.154,2.0187 1.39611,0 2.80563,0.72642 3.75744,1.93646 1.33023,1.6911 2.00266,1.88242 5.30723,1.50994 3.59042,-0.40469 3.78401,-0.32563 3.78401,1.54535 0,3.3745 6.925,7.21169 8.47854,4.69801 1.73802,-2.81217 5.09295,3.2912 5.76115,10.48086 0.45875,4.9359 0.72403,5.60136 2.40074,6.02218 1.03674,0.26021 2.23779,1.13231 2.66898,1.938 0.43119,0.80568 2.98879,3.75338 5.68354,6.55044 l 4.89956,5.08555 -4.1737,4.1084 c -2.29554,2.25961 -5.66022,5.34406 -7.47706,6.85433 -1.81686,1.51028 -6.53136,5.70282 -10.47669,9.31677 -4.17069,3.82038 -7.71966,6.45419 -8.47854,6.29221 -2.30444,-0.49188 -3.46364,-1.99407 -3.08147,-3.99322 0.25841,-1.35184 -0.33922,-2.75797 -1.95377,-4.59684 -2.42601,-2.76308 -2.96515,-4.45476 -1.41973,-4.45476 0.63888,0 0.61875,-0.34654 -0.0682,-1.17428 -0.53601,-0.64584 -1.66749,-2.53341 -2.51441,-4.19457 -1.52205,-2.98543 -1.52127,-3.04008 0.0682,-4.732 2.429,-2.58555 1.9067,-7.99357 -0.84141,-8.71222 -0.82098,-0.21469 -2.04063,-1.70175 -2.71033,-3.30458 -0.6697,-1.60282 -1.54542,-2.91423 -1.94605,-2.91423 -0.40063,0 -2.46485,0.92327 -4.58714,2.0517 -2.1223,1.12844 -4.44745,1.99501 -5.16701,1.92572 -2.64894,-0.25509 -3.327,0.0974 -3.327,1.72936 0,1.2417 -0.37334,1.55088 -1.45728,1.20685 -0.80152,-0.25439 -3.37655,-0.62387 -5.72229,-0.82106 -2.34575,-0.19719 -4.68774,-0.69289 -5.20443,-1.10156 -1.74232,-1.37808 -6.76903,-1.86863 -7.92549,-0.77344 -1.42598,1.35044 -4.94117,1.32247 -5.80988,-0.0462 -0.41743,-0.65769 -1.42293,-0.89176 -2.58158,-0.60095 -1.31925,0.3311 -2.14336,0.0441 -2.70324,-0.94143 -0.67994,-1.19688 -1.06229,-1.2605 -2.45421,-0.4084 -2.20732,1.35122 -2.4782,1.28503 -2.4782,-0.60565 0,-1.90196 -1.02359,-2.08924 -2.39399,-0.43801 -0.64498,0.77715 -1.77574,1.01715 -3.3288,0.70655 -1.68509,-0.33702 -2.3524,-0.15559 -2.35338,0.63988 -8.1e-4,0.79106 -1.30429,1.15605 -4.53305,1.26948 -5.24573,0.18428 -5.85792,0.54905 -4.51917,2.69275 0.53833,0.862 0.97879,2.66231 0.97879,4.00067 0,1.6247 0.40253,2.4334 1.21122,2.4334 0.66617,0 1.30206,-0.0614 1.41309,-0.13645 0.11103,-0.075 0.99739,0.28931 1.9697,0.80966 1.15568,0.61852 1.9411,0.66576 2.26822,0.13645 0.85979,-1.39116 2.02902,-0.89121 2.82753,1.20904 0.64004,1.68343 1.29769,2.0187 3.95974,2.0187 3.64583,0 4.26782,0.51134 8.15246,6.70209 2.34278,3.73356 3.6933,4.92561 7.89582,6.96933 2.7883,1.35598 5.29028,3.04036 5.55994,3.74309 0.33334,0.86869 1.08522,1.12835 2.34887,0.81119 1.14757,-0.28802 2.94846,0.17657 4.7075,1.21444 1.68841,0.99618 3.4909,1.47715 4.4249,1.1807 1.2587,-0.39949 1.49469,-0.18939 1.17225,1.04365 -0.51049,1.95212 4.12389,7.40479 6.29355,7.40479 0.91174,0 1.86773,0.83227 2.31881,2.0187 0.42213,1.11029 1.12846,2.0187 1.56963,2.0187 0.44117,0 0.59297,0.54505 0.33734,1.21122 -0.34261,0.89282 -1.75505,1.21122 -5.37311,1.21122 -3.90884,0 -5.28405,-0.35299 -6.75351,-1.73347 -1.52684,-1.43439 -2.05827,-1.55665 -3.08009,-0.70861 -0.6792,0.56367 -1.2349,1.4671 -1.2349,2.0076 0,0.5405 -0.91638,1.40027 -2.03641,1.91059 -1.56623,0.71362 -1.93189,1.34944 -1.58375,2.75392 0.32055,1.29313 -0.0315,2.12497 -1.20622,2.8502 -1.4181,0.87548 -2.03794,0.75828 -4.27048,-0.80748 -1.43638,-1.00738 -2.9013,-2.28425 -3.25538,-2.83747 -0.35408,-0.55323 -1.80754,-0.97288 -3.22992,-0.93258 -1.42237,0.0403 -3.31287,-0.0521 -4.2011,-0.20535 -1.17927,-0.20347 -1.60348,0.15704 -1.57245,1.33631 0.0372,1.41261 -0.51926,1.62964 -4.44114,1.73212 -2.46601,0.0644 -6.30048,0.51479 -8.52105,1.00079 -7.14484,1.56372 -12.25681,1.97329 -12.84056,1.02877 -0.95183,-1.54009 -5.54275,5.1e-4 -9.99867,3.35531 -4.3179,3.25088 -4.94459,4.79533 -2.12573,5.23871 2.20642,0.34704 5.29569,1.94231 6.99314,3.61117 1.06229,1.0444 2.42803,1.35918 5.04365,1.16249 2.24451,-0.1688 3.7243,0.0883 3.95404,0.68702 0.20193,0.52622 2.00537,1.20244 4.00763,1.50269 l 3.64048,0.54593 -0.47532,2.98718 c -0.53393,3.35546 -2.51516,6.55717 -4.0813,6.59547 -2.62435,0.0642 -5.07706,2.80498 -6.31216,7.0536 -1.18798,4.08649 -1.43153,4.37554 -3.29311,3.90831 -2.90039,-0.72795 -5.32728,0.23017 -4.88331,1.92791 0.28218,1.07904 -0.0392,1.32636 -1.38838,1.06844 -0.96554,-0.18457 -2.21863,0.2224 -2.78464,0.90439 -0.82979,0.99984 -1.32854,1.05299 -2.5752,0.27444 -1.15072,-0.71864 -1.91573,-0.73472 -2.99154,-0.0628 -1.71734,1.07249 -7.27819,0.77489 -8.50842,-0.45534 -2.05348,-2.05348 -2.78673,-0.89484 -1.60479,2.53577 1.04554,3.03471 1.03534,3.50217 -0.0945,4.3283 -1.40182,1.025 -1.72926,3.57425 -0.4591,3.57425 1.17457,0 0.99085,1.80675 -0.48443,4.76403 -1.25856,2.52285 -1.26075,7.03576 -0.005,9.86516 0.39434,0.88836 -0.22905,2.11444 -1.95014,3.83553 -2.83116,2.83115 -3.22694,2.92124 -6.93806,1.57929 -3.62068,-1.30925 -5.15723,0.0602 -5.15723,4.59661 0,3.77568 -1.40281,5.03118 -4.04281,3.61828 -3.45563,-1.84939 -5.64695,-0.58029 -5.64695,3.27045 0,0.83628 -0.72673,1.90945 -1.61496,2.38481 -0.88823,0.47536 -1.61496,1.39656 -1.61496,2.04711 0,0.86436 -0.98296,1.18281 -3.65098,1.18281 -3.2307,0 -3.75251,-0.25562 -4.53312,-2.22057 z"
       id="path3950"
       inkscape:connector-curvature="0" />
    <path
       style="opacity:0.9;fill:#999999;fill-opacity:1;stroke:#000000;stroke-width:0;stroke-linecap:round;stroke-linejoin:round;stroke-miterlimit:4;stroke-dasharray:none;stroke-opacity:1"
       d="m 583.64217,215.93742 c -1.4096,-0.46401 -2.94611,-1.68469 -3.41447,-2.71264 -0.71796,-1.57573 -1.45961,-1.86899 -4.72662,-1.86899 -4.83301,0 -6.6918,-1.27942 -9.83156,-6.76714 -2.52857,-4.41948 -3.11312,-7.27943 -1.67014,-8.17124 1.16707,-0.72129 0.99178,-4.6879 -0.28428,-6.43302 -0.93426,-1.27769 -1.79479,-1.41959 -5.96516,-0.9837 -4.54927,0.47549 -5.10084,0.34461 -8.29326,-1.96797 -2.63798,-1.91094 -4.05595,-2.40308 -6.20198,-2.15254 -3.29253,0.38438 -3.46739,0.1346 -6.79311,-9.7042 -1.27895,-3.78364 -2.82,-7.63781 -3.42456,-8.56482 -0.60455,-0.927 -3.30923,-8.22606 -6.01038,-16.22011 -2.70115,-7.99405 -6.37395,-17.9274 -8.16176,-22.07411 -4.25084,-9.85953 -17.30164,-35.050906 -19.97339,-38.553755 -1.80342,-2.364404 -1.91223,-2.810275 -0.79083,-3.240598 0.71517,-0.274437 1.30031,-1.186833 1.30031,-2.027545 0,-2.241366 3.35095,-1.959608 5.6372,0.473993 1.31127,1.395782 2.42205,1.866845 3.66592,1.554654 1.36187,-0.341807 2.35555,0.244745 4.19485,2.476132 1.32563,1.608223 3.46381,3.207187 4.75151,3.553248 l 2.34126,0.629197 -0.28527,5.793087 c -0.26754,5.432947 -0.18011,5.793077 1.40625,5.793077 0.93034,0 2.14537,0.72673 2.70008,1.61496 0.5547,0.88823 1.59718,1.61496 2.3166,1.61496 1.66918,0 6.92407,-3.48088 9.84476,-6.52125 2.75515,-2.868044 5.52431,-3.653956 8.51292,-2.416033 3.1234,1.293753 6.59661,-0.0516 6.58162,-2.549319 -0.0274,-4.569707 -0.71003,-5.323288 -4.70217,-5.191135 l -3.75787,0.1244 0.1243,-5.203488 c 0.10881,-4.554447 0.34446,-5.284923 1.88926,-5.856381 0.97072,-0.359093 1.94523,-1.342333 2.16559,-2.184976 0.28428,-1.087105 1.41079,-1.683561 3.87864,-2.053638 2.81174,-0.421646 3.65765,-0.9553 4.41587,-2.785795 0.75179,-1.814976 1.33377,-2.188559 2.93314,-1.88282 1.51138,0.28892 2.67473,-0.318213 4.79708,-2.503529 1.541,-1.586721 2.80182,-3.391689 2.80182,-4.01104 0,-0.619352 0.65638,-1.720108 1.45862,-2.446124 1.32087,-1.195369 1.6267,-1.202303 3.2384,-0.07342 2.21883,1.554135 4.47646,0.899866 5.62985,-1.631557 0.4852,-1.064906 1.86945,-2.420544 3.07611,-3.012529 1.20665,-0.591985 2.5908,-1.753372 3.07588,-2.580859 1.82542,-3.113953 5.50308,-6.166539 7.42926,-6.166539 1.09006,0 2.19108,-0.545049 2.44671,-1.21122 0.26174,-0.682063 1.46375,-1.21122 2.75137,-1.21122 2.11745,0 2.32455,-0.283686 2.80007,-3.835529 0.76337,-5.702046 0.97707,-6.08536 3.09608,-5.553523 1.08159,0.271462 2.53647,-0.02431 3.42426,-0.696151 0.84901,-0.642486 2.34664,-1.179712 3.32807,-1.193836 1.40546,-0.02023 1.98433,-0.754487 2.72575,-3.45747 0.99166,-3.6153 2.71881,-8.134648 4.00749,-10.486284 0.4226,-0.771173 0.76836,-2.315478 0.76836,-3.431789 0,-1.721632 0.37157,-2.029657 2.44838,-2.029657 1.3466,0 3.75286,0.545049 5.34723,1.21122 1.59438,0.666171 4.71315,1.21122 6.93061,1.21122 3.61903,0 4.31236,0.306351 6.77289,2.992622 1.50762,1.645941 3.16638,4.168621 3.68613,5.605954 0.77614,2.14639 1.49082,2.705552 3.99984,3.129448 3.72513,0.629357 4.72908,0.09071 4.72908,-2.537314 0,-1.196659 0.34322,-1.806579 0.84285,-1.497789 0.46357,0.286501 1.41363,0.04721 2.11125,-0.531766 1.06975,-0.887817 1.49548,-0.772243 2.71838,0.737964 1.85941,2.296284 2.9609,2.253726 6.65602,-0.25717 3.37654,-2.294416 3.79449,-3.551541 1.38983,-4.180372 -0.89308,-0.233548 -1.83299,-1.258139 -2.08868,-2.27687 -0.268,-1.067829 -1.29015,-2.059367 -2.4136,-2.341337 -2.37072,-0.59501 -2.49952,-2.329979 -0.33377,-4.49573 1.88403,-1.884029 5.04216,-2.111942 6.41094,-0.462659 0.54159,0.65258 3.29839,1.401483 6.35685,1.726887 7.27655,0.774186 17.95858,6.86438 17.89718,10.203805 -0.0553,3.0103 -1.65069,7.39422 -3.04665,8.371992 -1.30338,0.912919 -1.51221,1.761084 -1.17349,4.766161 0.37599,3.335783 0.25929,3.655614 -1.33395,3.655614 -2.36065,0 -3.66486,3.23957 -1.86923,4.643009 0.71028,0.555143 1.90983,1.00935 2.66565,1.00935 0.75584,0 1.57108,0.512952 1.81166,1.139893 0.24058,0.62694 1.74791,1.613773 3.34963,2.192963 3.44783,1.246752 3.64372,3.700733 0.42313,5.300575 -3.95561,1.964966 -2.41801,3.060971 4.64301,3.309555 3.66394,0.128991 6.66171,0.583198 6.66171,1.00935 0,0.426154 0.90842,0.774824 2.0187,0.774824 1.11029,0 2.0187,0.350838 2.0187,0.77964 0,0.428802 1.0901,1.894794 2.42244,3.25776 1.33234,1.362967 2.42244,2.97125 2.42244,3.573963 0,0.602714 0.87108,1.314469 1.93573,1.58168 1.06466,0.26721 2.68755,1.760066 3.60643,3.317457 1.39083,2.357285 2.13211,2.83162 4.42524,2.83162 1.51499,0 3.20689,0.545049 3.75976,1.21122 0.55287,0.666171 1.52225,1.21122 2.15416,1.21122 0.86805,0 1.02372,0.667478 0.63674,2.730267 -0.45652,2.433451 -0.21081,2.960153 2.2602,4.84488 2.95471,2.25367 5.60926,2.62663 9.14016,1.284183 1.69853,-0.645779 2.48743,-0.556005 3.54794,0.40374 1.5601,1.411864 6.93049,1.665986 7.73395,0.365963 0.34214,-0.553588 1.2608,-0.187823 2.53512,1.00935 1.74902,1.643154 2.86465,1.89017 8.93604,1.978557 5.23228,0.07614 7.1613,0.407058 7.84798,1.346149 0.50076,0.684832 2.23131,1.492934 3.84566,1.795787 3.17871,0.596333 5.94914,2.988597 5.08336,4.389478 -0.29594,0.478827 -1.785,1.391595 -3.30903,2.028368 -1.52402,0.63679 -2.77096,1.52265 -2.77096,1.96859 0,1.36021 -4.06026,2.98921 -25.43562,10.20503 -3.55291,1.19937 -8.50379,3.04535 -11.00195,4.10218 -2.49816,1.05681 -5.45144,1.92148 -6.56284,1.92148 -2.57219,0 -4.18388,1.749 -2.84524,3.08764 0.72803,0.72803 0.72355,0.94976 -0.0192,0.94976 -0.53294,0 -0.96898,0.54505 -0.96898,1.21121 0,0.66617 -0.55645,1.21122 -1.23656,1.21122 -0.68011,0 -1.44572,0.54505 -1.70135,1.21122 -0.25564,0.66617 -0.99938,1.21122 -1.65276,1.21122 -0.65338,0 -2.52709,1.43608 -4.16379,3.19128 -2.94519,3.15843 -3.02335,3.18639 -7.59061,2.71501 -3.8103,-0.39326 -4.70292,-0.24657 -5.12044,0.84148 -0.27812,0.72477 -0.82346,1.12136 -1.21185,0.88131 -0.3884,-0.24004 -1.45396,-0.0362 -2.36791,0.45289 -1.30713,0.69956 -1.62159,1.56982 -1.47358,4.07817 0.10348,1.75386 -0.18997,3.56696 -0.65212,4.02911 -0.4831,0.48309 -3.5241,0.73907 -7.15398,0.60219 l -6.31369,-0.2381 -0.94493,-2.82617 c -0.64259,-1.9219 -1.51578,-2.91022 -2.72899,-3.08881 -1.3669,-0.20122 -1.66583,-0.63511 -1.27848,-1.85558 0.65999,-2.07942 -0.93789,-3.9379 -3.38571,-3.9379 -1.06985,0 -2.15433,-0.54505 -2.40996,-1.21122 -0.25564,-0.66616 -1.33433,-1.21122 -2.3971,-1.21122 -1.06277,0 -1.93231,-0.31381 -1.93231,-0.69737 0,-0.38355 -0.95796,-1.65532 -2.12881,-2.82617 -2.46696,-2.46696 -5.13851,-2.82452 -5.13851,-0.68773 0,1.96109 -3.01342,10.39751 -4.55343,12.74787 -0.86672,1.32277 -1.09281,2.8439 -0.73755,4.96213 0.47538,2.83444 0.33458,3.13257 -1.95347,4.13618 -2.71601,1.19131 -4.91537,4.28577 -3.40413,4.78951 0.59056,0.19686 0.72638,2.0235 0.40574,5.45716 -0.3833,4.10472 -0.19753,5.59537 0.90756,7.28194 1.76394,2.69211 1.30557,3.13624 -1.64743,1.59624 -1.28739,-0.67138 -2.807,-1.22293 -3.3769,-1.22566 -0.56991,-0.002 -2.86247,-0.93042 -5.0946,-2.06152 -2.92822,-1.48385 -5.11319,-2.00447 -7.84608,-1.86953 -2.08323,0.10286 -5.30218,-0.0887 -7.15322,-0.42568 -3.31652,-0.60377 -3.38666,-0.56771 -4.81498,2.47514 -0.79718,1.6983 -2.46046,4.17793 -3.69617,5.51027 -1.24209,1.33922 -2.24841,3.35065 -2.25048,4.49822 -0.002,1.14167 -1.00299,4.0486 -2.22431,6.45984 -1.73644,3.42825 -2.81268,4.57545 -4.93643,5.26188 -2.35514,0.76124 -8.06798,6.18393 -8.1548,7.74063 -0.0167,0.29903 0.91618,1.66851 2.07301,3.04332 2.03102,2.41373 2.06571,2.62883 1.00935,6.25769 -0.63107,2.16783 -2.39922,5.15111 -4.17856,7.05019 -1.69652,1.81068 -3.35069,3.75453 -3.67592,4.31966 -0.32524,0.56513 -1.7198,1.17033 -3.09902,1.34488 -1.37922,0.17455 -3.24399,0.71143 -4.14392,1.19306 -0.89993,0.48163 -1.75098,0.82459 -1.8912,0.76215 -0.14023,-0.0624 -1.40826,-0.49318 -2.81787,-0.95719 z"
       id="path3952"
       inkscape:connector-curvature="0" />
  </g>
</svg>
